static_grf.mot
version=1
nRows=30
nColumns 19
inDegrees=yes
endheader
time	1_ground_force_vx	1_ground_force_vy	1_ground_force_vz	1_ground_force_px	1_ground_force_py	1_ground_force_pz	1_ground_torque_x	1_ground_torque_y	1_ground_torque_z	2_ground_force_vx	2_ground_force_vy	2_ground_force_vz	2_ground_force_px	2_ground_force_py	2_ground_force_pz	2_ground_torque_x	2_ground_torque_y	2_ground_torque_z
            1.415000	           -3.172410	          403.639455	          -46.182147	           -0.252224	            0.006179	           -0.395793	           -0.038176	            4.857299	           -0.555745	            0.326320	          486.357587	           49.320170	           -0.262824	            0.005502	           -0.688593	           -0.003079	           -4.588295	           -0.465286
            1.415500	           -3.218301	          403.279111	          -46.229431	           -0.252620	            0.006179	           -0.395785	           -0.038649	            4.843009	           -0.555173	            0.229297	          487.278014	           49.323495	           -0.262850	            0.005503	           -0.688710	           -0.002149	           -4.566251	           -0.462207
            1.416000	           -3.264728	          402.739515	          -46.506772	           -0.252594	            0.006180	           -0.396191	           -0.039304	            4.848519	           -0.559888	            0.325594	          486.542230	           49.180043	           -0.262708	            0.005502	           -0.688300	           -0.003039	           -4.541336	           -0.459042
            1.416500	           -3.263865	          402.377608	          -46.187330	           -0.252656	            0.006181	           -0.396378	           -0.039598	            4.881752	           -0.560357	            0.560570	          486.358433	           49.320070	           -0.262861	            0.005501	           -0.688173	           -0.005298	           -4.596651	           -0.466132
            1.417000	           -3.264419	          402.919161	          -46.368435	           -0.252631	            0.006180	           -0.396114	           -0.039427	            4.866410	           -0.560032	            0.465479	          486.726939	           49.180640	           -0.262885	            0.005501	           -0.688358	           -0.004371	           -4.570015	           -0.461771
            1.417500	           -3.080805	          403.459434	          -46.229000	           -0.252509	            0.006179	           -0.395904	           -0.036874	            4.828937	           -0.553307	            0.605425	          486.911085	           49.322022	           -0.262788	            0.005503	           -0.688608	           -0.005718	           -4.598982	           -0.465857
            1.418000	           -3.309903	          402.197696	          -46.279701	           -0.252700	            0.006180	           -0.396216	           -0.039244	            4.768663	           -0.548716	            0.323579	          487.094881	           49.135086	           -0.263016	            0.005501	           -0.688465	           -0.003044	           -4.582481	           -0.462252
            1.418500	           -3.172311	          403.098688	          -46.184466	           -0.252532	            0.006179	           -0.395888	           -0.038121	            4.844001	           -0.554995	            0.369744	          487.279358	           49.088795	           -0.263090	            0.005501	           -0.688520	           -0.003448	           -4.544009	           -0.457766
            1.419000	           -3.172814	          402.739140	          -46.415288	           -0.252405	            0.006180	           -0.396132	           -0.038069	            4.832284	           -0.556916	            0.326300	          486.357755	           49.273242	           -0.263099	            0.005500	           -0.688245	           -0.003068	           -4.572315	           -0.463224
            1.419500	           -3.264827	          403.280282	          -46.504453	           -0.252435	            0.006180	           -0.396095	           -0.039117	            4.831900	           -0.557193	            0.609434	          485.806013	           49.365007	           -0.263082	            0.005499	           -0.688008	           -0.005802	           -4.625257	           -0.469994
            1.420000	           -3.217974	          402.737951	          -46.140038	           -0.252740	            0.006179	           -0.396011	           -0.038723	            4.846262	           -0.555216	            0.185065	          486.541555	           49.227030	           -0.262982	            0.005501	           -0.688451	           -0.001721	           -4.525574	           -0.457886
            1.420500	           -3.172149	          403.458826	          -46.091208	           -0.252327	            0.006179	           -0.395893	           -0.038213	            4.860193	           -0.555229	            0.608666	          485.990990	           49.131024	           -0.262852	            0.005501	           -0.688295	           -0.005734	           -4.578119	           -0.462823
            1.421000	           -3.218495	          403.099269	          -46.321916	           -0.252488	            0.006180	           -0.396137	           -0.038623	            4.837315	           -0.555877	            0.373835	          486.173616	           49.319493	           -0.263077	            0.005500	           -0.688152	           -0.003492	           -4.541913	           -0.460751
            1.421500	           -3.493847	          403.460141	          -46.411399	           -0.252779	            0.006179	           -0.395888	           -0.041857	            4.833580	           -0.556023	            0.420664	          486.173952	           49.272545	           -0.262915	            0.005501	           -0.688269	           -0.003960	           -4.577168	           -0.463885
            1.422000	           -3.310523	          403.099841	          -46.459260	           -0.252537	            0.006179	           -0.395922	           -0.039819	            4.848531	           -0.558817	            0.469405	          485.622536	           49.035913	           -0.263067	            0.005499	           -0.687950	           -0.004441	           -4.594102	           -0.463891
            1.422500	           -3.265120	          403.641206	          -46.594619	           -0.252510	            0.006179	           -0.395885	           -0.039060	            4.828706	           -0.557405	            0.417361	          487.094550	           49.322758	           -0.262662	            0.005502	           -0.688467	           -0.003937	           -4.594448	           -0.465230
            1.423000	           -3.309301	          402.016478	          -46.051191	           -0.252687	            0.006181	           -0.396444	           -0.040044	            4.864593	           -0.557242	            0.561775	          485.991156	           49.037188	           -0.263005	            0.005499	           -0.687946	           -0.005312	           -4.595397	           -0.463682
            1.423500	           -3.356300	          402.739301	          -46.460692	           -0.252340	            0.006179	           -0.395909	           -0.039965	            4.795617	           -0.553231	            0.651590	          487.095563	           49.275731	           -0.262899	            0.005502	           -0.688471	           -0.006116	           -4.572158	           -0.462530
            1.424000	           -3.264144	          403.279102	          -46.229318	           -0.252633	            0.006179	           -0.395832	           -0.039001	            4.818489	           -0.552361	            0.422699	          485.621196	           49.364430	           -0.263021	            0.005500	           -0.688027	           -0.004000	           -4.595060	           -0.467098
            1.424500	           -3.309987	          403.279093	          -46.229204	           -0.252632	            0.006179	           -0.395927	           -0.039720	            4.839415	           -0.554758	            0.792825	          486.911762	           49.321942	           -0.262903	            0.005502	           -0.688496	           -0.007496	           -4.603574	           -0.466321
            1.425000	           -3.173009	          402.559237	          -46.507772	           -0.252266	            0.006180	           -0.396206	           -0.038193	            4.845603	           -0.559814	            0.512267	          486.727611	           49.039836	           -0.263035	            0.005501	           -0.688436	           -0.004850	           -4.607781	           -0.464253
            1.425500	           -3.264892	          403.640813	          -46.502907	           -0.252569	            0.006178	           -0.395642	           -0.038773	            4.793584	           -0.552262	            0.419273	          486.542736	           49.133075	           -0.262791	            0.005501	           -0.688147	           -0.003895	           -4.519973	           -0.456445
            1.426000	           -3.172946	          403.460203	          -46.412196	           -0.252597	            0.006179	           -0.395833	           -0.038228	            4.860971	           -0.559184	            0.604761	          487.095226	           49.322679	           -0.262857	            0.005502	           -0.688470	           -0.005691	           -4.583701	           -0.464140
            1.426500	           -3.355584	          402.557825	          -46.186330	           -0.252553	            0.006180	           -0.396222	           -0.039699	            4.762600	           -0.546423	            0.418005	          486.910576	           49.275173	           -0.262911	            0.005501	           -0.688334	           -0.003921	           -4.567374	           -0.462217
            1.427000	           -3.127037	          403.099680	          -46.413855	           -0.252260	            0.006179	           -0.395864	           -0.037058	            4.777108	           -0.550048	            0.513761	          486.357929	           49.413946	           -0.262907	            0.005500	           -0.688094	           -0.004804	           -4.547862	           -0.462063
            1.427500	           -2.989184	          403.819983	          -46.227681	           -0.252520	            0.006179	           -0.395776	           -0.035984	            4.861270	           -0.556499	            0.372444	          486.542399	           49.180023	           -0.262910	            0.005501	           -0.688339	           -0.003445	           -4.500934	           -0.454957
            1.428000	           -3.263850	          402.918178	          -46.139152	           -0.252701	            0.006180	           -0.396088	           -0.038963	            4.809938	           -0.550798	            0.464876	          486.910578	           49.322081	           -0.263064	            0.005501	           -0.688451	           -0.004366	           -4.573178	           -0.463245
            1.428500	           -3.126908	          403.640053	          -46.319825	           -0.252448	            0.006179	           -0.395853	           -0.037637	            4.858439	           -0.557531	            0.420705	          486.173618	           49.366401	           -0.262917	            0.005501	           -0.688192	           -0.003947	           -4.561375	           -0.463165
            1.429000	           -3.401394	          402.377581	          -46.186989	           -0.252503	            0.006181	           -0.396241	           -0.040731	            4.818382	           -0.553079	            0.651611	          487.095395	           49.322659	           -0.262969	            0.005501	           -0.688433	           -0.006161	           -4.605355	           -0.466332
            1.429500	           -3.172748	          402.378608	          -46.416833	           -0.252737	            0.006179	           -0.395979	           -0.038378	            4.867257	           -0.561468	            0.653584	          486.543080	           49.273759	           -0.263015	            0.005500	           -0.688229	           -0.006112	           -4.549884	           -0.460781
